<svg version="1.0" xmlns="http://www.w3.org/2000/svg" width="106.667" height="106.667" viewBox="0 0 80 80"><path d="M0 40v40h80V0H0v40zM54.6 6c.4 1.6 1 2.7 1.5 2.5 1.6-1 4.3 4.8 4.5 9.8.2 4-.4 6.1-2.8 10.4-1.6 2.9-3.4 5.3-3.9 5.3s-.9-1.8-.9-3.9c0-2.3-.7-4.6-1.6-5.6-1.5-1.5-1.5-1.7.2-3 1.1-.8 3.4-2.2 5.2-3.2 3.2-1.7 4.5-3.7 1.8-2.7-1.1.4-1.6-.4-1.9-2.8-.3-3-.4-3-.5.8-.2 4.9-2.3 6.6-10.5 9.1-2.9.8-6 2.1-7.1 2.9-1.8 1.2-2.2 1-4.4-2.3l-2.5-3.6 4.6-4.4c5-4.7 6.7-5.3 6.7-2.4 0 1 .7 3.4 1.6 5.2 1 2.2 1.3 2.5.9.9-1.9-7.2-1.9-7 2.6-11.6C50.5 5 52.8 3 53.2 3c.5 0 1.1 1.3 1.4 3zM27 26.2c-1 2.4-2 6.1-2.2 8.1-.1 2.5-.5 3.4-1.2 2.7-1.6-1.6-1.1-8.9 1-14.7 1.8-4.9 1.9-5 3.1-2.8 1.1 1.9.9 3-.7 6.7zm36.5 5.5c-.3 2.9-1 5.3-1.5 5.3-1.5 0-6.1-2.3-5.8-2.9.2-.3 1.9-3.7 3.8-7.5 3.4-6.7 3.5-6.8 3.8-3.5.2 1.9.1 5.8-.3 8.6zM34 25.6c.6 1.4 1 3.9 1 5.5 0 2.4-.4 2.9-2.3 2.9-1.2 0-3.3.8-4.6 1.7l-2.4 1.6.6-4.8c1.2-8.5 5.6-12.4 7.7-6.9zm16.9-.2c.7.8 1.1 3.2.9 5.2-.2 3.1-.8 4-2.8 4.5-1.9.5-1.4.7 2.2.8 10.2.2 12.8 4.9 6.5 11.7-3.2 3.6-3.3 3.6-7.4 2.4-3.3-1-4.3-1.9-5-4.4-.5-1.7-1.9-3.6-3.1-4.2-3.1-1.5-2.8-2.7 1.1-4.1 1.7-.6 2.7-1.2 2-1.2-.6-.1-2.4.4-3.9.9-3.3 1.3-5.5-1-5.1-5.4.4-5 11.7-9.8 14.6-6.2zM21 32.2c.7 2.9 2.3 7.7 3.7 10.5 3.1 6.4 2.6 8.5-1.9 8.1-2.7-.2-3.6-1-5.1-4.1-1.7-3.4-1.8-4.4-.6-12.2.7-4.6 1.6-8.2 2-7.9.4.2 1.2 2.8 1.9 5.6zm14.5 5.2c1.6 2.4 1.5 2.6-2.2 6-2.1 1.9-4 3.5-4.3 3.5-.3 0-1.3-1.6-2.3-3.7L25 39.5l2.7-2.2c3.6-2.9 5.9-2.9 7.8.1zm33.4.2c.3.2-.5 1.4-1.6 2.7-1.1 1.2-2.8 3.9-3.8 6s-3 4.4-4.6 5.2c-3.4 1.8-4.8.3-1.8-1.9 3.1-2.2 5.9-6.7 5.9-9.7 0-1.4.3-2.9.7-3.2.6-.7 4.2 0 5.2.9zM43 43.9c1.7 3.2 1.2 5.1-1.7 6.2-2.8 1-12.3.3-12.2-.9 0-.4 1.8-2.2 4.1-4 4.5-3.6 8.2-4.1 9.8-1.3zm10.8 8.8c1.3.8 2 1.9 1.5 2.6-.4.7 0 .6 1-.2 3.1-2.5 2.8-.5-.5 3.3-1.8 2-5.1 4.3-7.3 5.1-2.2.7-4 1.7-4 2.2 0 .4-.6 1.7-1.2 2.8-1.1 1.9-1.3 1.9-5.5.4-2.4-.9-5.1-1.9-6-2.3-1.5-.7-1.6-.3-1.1 2.8.4 2.4.2 3.6-.6 3.6-.7 0-1.1-2.2-1.1-5.9 0-4.7-.4-6.3-1.8-7.3-2.6-1.8-5.6-6.7-4.8-7.6 1.3-1.3 13.2-.8 14.9.6 1.9 1.6 3.1 6.4 2.2 9.1-.3 1.1-1.6 2.2-2.8 2.4-1.9.4-1.8.4.4.6 2.1.1 2.8-.5 3.3-2.4.5-2 1.3-2.5 3.7-2.5 2.8 0 9.9-2.4 9.9-3.3 0-.3-1.7.1-3.7.9-6 2.1-8.1 1.8-9.8-1.6-2-3.8-2-3.8 1.8-4.8 3.8-1.1 8.3-.5 11.5 1.5zm-30.5 5.4 5.2 5.2-4.3-.6c-2.4-.3-5.8-1.7-7.8-3.2L13 56.9l2.2-1.9c1.3-1.1 2.5-1.9 2.6-2 .2 0 2.7 2.3 5.5 5.1z"/><path d="M31.8 63.7c.7.3 1.6.2 1.9-.1.4-.3-.2-.6-1.3-.5-1.1 0-1.4.3-.6.6z"/></svg>